<svg viewBox="0 0 226 44" xmlns="http://www.w3.org/2000/svg" data-logo="logo">
            <g transform="translate(0, 2) rotate(0)" id="logogram" style="opacity: 1;"><path fill="#25C1AF" d="M40 13.4683C40.0001 10.7823 39.1891 8.1589 37.673 5.9417C36.1569 3.72451 34.0065 2.01688 31.5035 1.04252C29.0005 0.0681476 26.2615 -0.127534 23.6455 0.48109C21.0293 1.08971 18.658 2.47428 16.8421 4.45341H0V40H35.5601V23.3873C36.9557 22.139 38.0726 20.6104 38.8377 18.9012C39.6027 17.192 39.9988 15.3409 40 13.4683ZM33.1579 13.4683C33.1606 14.7553 32.7814 16.0143 32.0683 17.0858C31.3551 18.1572 30.3402 18.9931 29.1518 19.4874C27.9634 19.9819 26.6552 20.1127 25.3924 19.8631C24.1298 19.6137 22.9695 18.9953 22.0584 18.0861C21.1474 17.1769 20.5266 16.0179 20.2745 14.7557C20.0224 13.4936 20.1505 12.185 20.6424 10.9957C21.1343 9.80626 21.968 8.78957 23.0379 8.07423C24.108 7.35888 25.3661 6.97705 26.6532 6.97703C28.376 6.97703 30.0285 7.6605 31.2479 8.87745C32.4675 10.0944 33.1544 11.7455 33.1579 13.4683ZM28.7179 33.1579H6.84211V11.2955H13.5088C13.38 12.0128 13.3123 12.7397 13.3063 13.4683C13.31 17.007 14.7173 20.3997 17.2196 22.902C19.7217 25.4042 23.1144 26.8116 26.6532 26.8151C27.3451 26.8115 28.0355 26.7528 28.7179 26.6397V33.1579Z"></path></g>
            <g transform="translate(42, 7)" id="logotype" style="opacity: 1;"><path d="M14.58 2.54L14.58 2.54Q18.07 2.54 20.75 3.62Q23.43 4.71 25.41 6.80L25.41 6.80L22.25 11.01Q20.62 9.30 18.74 8.45Q16.86 7.59 14.46 7.59L14.46 7.59Q13.06 7.59 12.18 7.90Q11.31 8.20 10.93 8.73Q10.55 9.27 10.55 9.95L10.55 9.95Q10.55 10.75 11.29 11.30Q12.03 11.85 13.70 12.23L13.70 12.23L17.92 13.18Q21.68 14.05 23.43 15.73Q25.18 17.40 25.18 20.17L25.18 20.17Q25.18 22.83 23.81 24.68Q22.44 26.52 20.05 27.45Q17.66 28.38 14.58 28.38L14.58 28.38Q12.07 28.38 9.79 27.83Q7.51 27.28 5.69 26.25Q3.86 25.23 2.61 23.90L2.61 23.90L5.76 19.53Q6.71 20.63 8.10 21.48Q9.49 22.34 11.14 22.83Q12.79 23.33 14.50 23.33L14.50 23.33Q15.83 23.33 16.73 23.06Q17.62 22.79 18.04 22.26Q18.45 21.73 18.45 21.01L18.45 21.01Q18.45 20.21 17.88 19.66Q17.31 19.11 15.72 18.73L15.72 18.73L11.08 17.70Q8.95 17.21 7.30 16.39Q5.65 15.57 4.70 14.19Q3.75 12.80 3.75 10.71L3.75 10.71Q3.75 8.35 5.04 6.51Q6.33 4.67 8.76 3.60Q11.20 2.54 14.58 2.54ZM39.24 8.62L39.24 8.62Q42.24 8.62 44.50 9.78Q46.76 10.94 48.04 13.16Q49.31 15.38 49.31 18.50L49.31 18.50Q49.31 21.62 48.04 23.84Q46.76 26.06 44.50 27.22Q42.24 28.38 39.24 28.38L39.24 28.38Q36.31 28.38 34.03 27.22Q31.75 26.06 30.48 23.84Q29.21 21.62 29.21 18.50L29.21 18.50Q29.21 15.38 30.48 13.16Q31.75 10.94 34.03 9.78Q36.31 8.62 39.24 8.62ZM39.24 13.22L39.24 13.22Q38.14 13.22 37.34 13.75Q36.54 14.28 36.12 15.46Q35.71 16.64 35.71 18.50L35.71 18.50Q35.71 20.36 36.12 21.52Q36.54 22.68 37.34 23.23Q38.14 23.78 39.24 23.78L39.24 23.78Q40.38 23.78 41.18 23.23Q41.98 22.68 42.39 21.52Q42.81 20.36 42.81 18.50L42.81 18.50Q42.81 16.64 42.39 15.46Q41.98 14.28 41.18 13.75Q40.38 13.22 39.24 13.22ZM63.18 0.41L63.18 0.41Q64.74 0.41 65.92 0.73Q67.09 1.06 67.66 1.48L67.66 1.48L67.02 5.50Q66.60 5.24 66.07 5.09Q65.54 4.93 64.74 4.93L64.74 4.93Q63.41 4.93 62.55 5.54Q61.70 6.15 61.70 7.67L61.70 7.67L61.70 10.14L62.08 11.20L62.08 28L55.62 28L55.62 7.25Q55.62 5.43 56.21 4.14Q56.80 2.84 57.86 2.01Q58.92 1.17 60.29 0.79Q61.66 0.41 63.18 0.41ZM52.58 9L67.47 9L67.47 13.60L52.58 13.60L52.58 9ZM72.95 4.74L79.41 2.96L79.41 21.24Q79.41 22.60 80.07 23.19Q80.74 23.78 81.91 23.78L81.91 23.78Q82.83 23.78 83.49 23.57Q84.16 23.36 84.69 22.95L84.69 22.95L85.37 26.94Q84.42 27.62 82.98 28Q81.53 28.38 80.01 28.38L80.01 28.38Q77.85 28.38 76.27 27.77Q74.69 27.16 73.84 25.83Q72.98 24.50 72.95 22.30L72.95 22.30L72.95 4.74ZM69.68 9L85.07 9L85.07 13.60L69.68 13.60L69.68 9ZM99.70 2.54L99.70 2.54Q103.19 2.54 105.87 3.62Q108.55 4.71 110.53 6.80L110.53 6.80L107.37 11.01Q105.74 9.30 103.86 8.45Q101.98 7.59 99.58 7.59L99.58 7.59Q98.18 7.59 97.30 7.90Q96.43 8.20 96.05 8.73Q95.67 9.27 95.67 9.95L95.67 9.95Q95.67 10.75 96.41 11.30Q97.15 11.85 98.82 12.23L98.82 12.23L103.04 13.18Q106.80 14.05 108.55 15.73Q110.30 17.40 110.30 20.17L110.30 20.17Q110.30 22.83 108.93 24.68Q107.56 26.52 105.17 27.45Q102.78 28.38 99.70 28.38L99.70 28.38Q97.19 28.38 94.91 27.83Q92.63 27.28 90.81 26.25Q88.98 25.23 87.73 23.90L87.73 23.90L90.88 19.53Q91.83 20.63 93.22 21.48Q94.61 22.34 96.26 22.83Q97.91 23.33 99.62 23.33L99.62 23.33Q100.95 23.33 101.84 23.06Q102.74 22.79 103.16 22.26Q103.57 21.73 103.57 21.01L103.57 21.01Q103.57 20.21 103.00 19.66Q102.43 19.11 100.84 18.73L100.84 18.73L96.20 17.70Q94.07 17.21 92.42 16.39Q90.77 15.57 89.82 14.19Q88.87 12.80 88.87 10.71L88.87 10.71Q88.87 8.35 90.16 6.51Q91.45 4.67 93.88 3.60Q96.32 2.54 99.70 2.54ZM124.59 28.38L124.59 28.38Q121.43 28.38 119.13 27.20Q116.84 26.02 115.58 23.82Q114.33 21.62 114.33 18.50L114.33 18.50Q114.33 15.38 115.58 13.18Q116.84 10.98 119.10 9.80Q121.36 8.62 124.28 8.62L124.28 8.62Q127.29 8.62 129.39 9.78Q131.50 10.94 132.61 12.97Q133.71 15.00 133.71 17.63L133.71 17.63Q133.71 18.31 133.67 18.99Q133.63 19.68 133.56 20.13L133.56 20.13L118.51 20.13L118.51 16.68L130.71 16.68L127.63 17.85Q127.63 15.57 126.81 14.36Q125.99 13.14 124.28 13.14L124.28 13.14Q123.07 13.14 122.21 13.71Q121.36 14.28 120.92 15.50Q120.48 16.71 120.48 18.61L120.48 18.61Q120.48 20.48 120.98 21.63Q121.47 22.79 122.38 23.31Q123.30 23.82 124.59 23.82L124.59 23.82Q126.03 23.82 126.89 23.25Q127.74 22.68 128.16 21.65L128.16 21.65L133.33 23.36Q132.80 25.00 131.48 26.12Q130.17 27.24 128.37 27.81Q126.56 28.38 124.59 28.38ZM138.61 0.94L145.07 0.94L145.07 21.54Q145.07 22.79 145.49 23.33Q145.91 23.86 146.89 23.86L146.89 23.86Q147.46 23.86 147.84 23.78Q148.22 23.71 148.76 23.55L148.76 23.55L148.34 27.43Q147.65 27.85 146.55 28.11Q145.45 28.38 144.39 28.38L144.39 28.38Q141.35 28.38 139.98 26.97Q138.61 25.57 138.61 22.38L138.61 22.38L138.61 0.94ZM152.40 0.94L158.86 0.94L158.86 21.54Q158.86 22.79 159.28 23.33Q159.70 23.86 160.69 23.86L160.69 23.86Q161.26 23.86 161.64 23.78Q162.02 23.71 162.55 23.55L162.55 23.55L162.13 27.43Q161.45 27.85 160.35 28.11Q159.24 28.38 158.18 28.38L158.18 28.38Q155.14 28.38 153.77 26.97Q152.40 25.57 152.40 22.38L152.40 22.38L152.40 0.94ZM174.25 28.38L174.25 28.38Q171.40 28.38 168.95 27.45Q166.50 26.52 164.91 24.77L164.91 24.77L167.95 21.20Q168.90 22.41 170.47 23.23Q172.05 24.05 173.99 24.05L173.99 24.05Q175.17 24.05 175.93 23.71Q176.69 23.36 176.69 22.64L176.69 22.64Q176.69 22.11 176.31 21.79Q175.93 21.46 174.79 21.24L174.79 21.24L172.13 20.70Q168.55 19.98 167.05 18.56Q165.55 17.13 165.55 14.81L165.55 14.81Q165.55 13.26 166.50 11.83Q167.45 10.41 169.43 9.51Q171.40 8.62 174.48 8.62L174.48 8.62Q177.37 8.62 179.57 9.46Q181.78 10.29 183.07 11.89L183.07 11.89L179.99 15.38Q179.08 14.24 177.64 13.60Q176.19 12.95 174.75 12.95L174.75 12.95Q173.84 12.95 173.21 13.12Q172.58 13.29 172.28 13.60Q171.97 13.90 171.97 14.36L171.97 14.36Q171.97 14.85 172.45 15.21Q172.92 15.57 174.22 15.84L174.22 15.84L177.67 16.52Q180.60 17.06 181.89 18.46Q183.18 19.87 183.18 21.84L183.18 21.84Q183.18 23.71 182.20 25.19Q181.21 26.67 179.23 27.52Q177.26 28.38 174.25 28.38Z" fill="#038791"></path></g>
            
          </svg>